<mxfile host="app.diagrams.net" modified="2023-10-06T15:50:53.958Z" agent="Mozilla/5.0 (Windows NT 10.0; Win64; x64) AppleWebKit/537.36 (KHTML, like Gecko) Chrome/117.0.0.0 Safari/537.36" version="22.0.3" etag="n4vJX26NdMTdaH3ZNjfl" type="github">
  <diagram name="第 1 页" id="mniryzBgyxToKu_HHziO">
    <mxGraphModel>
      <root>
        <mxCell id="0" />
        <mxCell id="1" parent="0" />
      </root>
    </mxGraphModel>
  </diagram>
</mxfile>
